# xmcd CD database file
#
# Track frame offsets:
#	225
#	20290
#	34053
#	44880
#	59210
#	72450
#	85723
#	96960
#	106763
#	118993
#	132168
#	146913
#	159053
#	173110
#	187188
#	201088
#	213988
#	226503
#
# Disc length: 3164 seconds
#
# Revision: 0
# Processed by: cddbd v1.4PL0 Copyright (c) Steve Scherf et al.
# Submitted via: CDex 1.40Release
#
DISCID=060c5912
DTITLE=Carroll Baker - Carroll Baker Classics
DYEAR=1986
DGENRE=Country
TTITLE0=I've Never Been This Far
TTITLE1=Ten Little Fingers
TTITLE2=Little Boy Blue
TTITLE3=The Hungry Fire Of Love
TTITLE4=All Them Irons In The Fire
TTITLE5=Picture In My Mind
TTITLE6=Why I Had To Pass This Way
TTITLE7=Gone, Gone, Gone
TTITLE8=Why Me Lord
TTITLE9=One Night Of Cheatin'
TTITLE10=One Is One Too Many
TTITLE11=Cryin' Places
TTITLE12=I'd Go Through It All Again
TTITLE13=Tonight With Love
TTITLE14=The Need In Me
TTITLE15=(Maybe) I'll Get Over You Someday
TTITLE16=Like You Touched Me
TTITLE17=God's Gift To Me
EXTD=YEAR: 1986 ID3G: 2
EXTT0=
EXTT1=
EXTT2=
EXTT3=
EXTT4=
EXTT5=
EXTT6=
EXTT7=
EXTT8=
EXTT9=
EXTT10=
EXTT11=
EXTT12=
EXTT13=
EXTT14=
EXTT15=
EXTT16=
EXTT17=
PLAYORDER=
